<svg width="112" height="112" viewBox="0 0 112 112" fill="none" xmlns="http://www.w3.org/2000/svg">
<path d="M36.4994 73.1598C26.3002 73.1598 18 81.46 18 91.6592C18 101.858 26.3002 110.159 36.4994 110.159C46.6986 110.159 54.9988 101.858 54.9988 91.6592C54.9988 81.46 46.6986 73.1598 36.4994 73.1598ZM43.5834 91.6592C43.5834 95.5639 40.4041 98.7432 36.4994 98.7432C32.5947 98.7432 29.4154 95.5639 29.4154 91.6592C29.4154 87.7545 32.5947 84.5752 36.4994 84.5752C40.4041 84.5752 43.5834 87.7545 43.5834 91.6592Z" fill="#09896D"/>
<path d="M61.0017 48.2806L92.9436 11.239H77.5381L50.1197 43.181H43.4625V2C41.7768 2.08535 31.3002 3.10954 30.9375 15.6132V68.4229C32.7298 67.9962 34.5862 67.7402 36.5065 67.7402C38.939 67.7402 41.2647 68.1029 43.4838 68.7857V54.0416H50.4611L78.3063 88.7574H94.0532L61.0017 48.2806Z" fill="white"/>
</svg>
