<svg width="408" height="112" viewBox="0 0 408 112" fill="none" xmlns="http://www.w3.org/2000/svg">
<g clip-path="url(#clip0_12_570)">
<path d="M134.421 62.3653H90.8293C91.1921 67.6142 92.9417 71.6897 96.0356 74.5702C99.1509 77.4507 102.992 78.9017 107.579 78.9017C110.908 78.9017 113.81 78.1335 116.285 76.5759C118.76 75.0183 120.638 72.7992 121.875 69.9187L132.97 71.583C131.114 76.9173 127.935 81.0567 123.433 84.0013C118.931 86.9672 113.639 88.4394 107.579 88.4394C103.29 88.4394 99.3643 87.778 95.8223 86.4337C92.2803 85.1108 89.2504 83.1905 86.7753 80.7153C84.3001 78.2402 82.3798 75.253 81.0142 71.7323C79.6486 68.2117 78.9658 64.2856 78.9658 59.9115C78.9658 55.5587 79.6699 51.6113 81.0782 48.0906C82.4865 44.57 84.4282 41.5828 86.9033 39.1076C89.3784 36.6325 92.3656 34.7335 95.8223 33.3893C99.3002 32.0663 103.098 31.3835 107.238 31.3835C111.164 31.3835 114.77 31.981 118.098 33.2186C121.427 34.4348 124.308 36.2271 126.74 38.5955C129.172 40.964 131.071 43.9085 132.458 47.4078C133.824 50.9285 134.507 54.9612 134.507 59.5488L134.421 62.3653ZM107.366 40.9426C103.141 40.9426 99.6416 41.9242 96.8251 43.8872C94.0086 45.8502 92.1949 48.9228 91.3841 53.1476H122.323C121.726 49.1575 120.061 46.1276 117.33 44.0579C114.62 41.9882 111.292 40.9426 107.366 40.9426Z" fill="white"/>
<path d="M183.782 32.5357H196.99L162.487 114.258H149.279L161.932 85.1961L139.528 32.5144H152.608L168.142 72.9912L183.782 32.5357Z" fill="white"/>
<path d="M276.644 21.6536C274.575 21.6536 272.804 20.9068 271.31 19.4345C269.838 17.9622 269.091 16.1912 269.091 14.1002C269.091 12.0091 269.838 10.2808 271.31 8.82987C272.782 7.37894 274.553 6.6748 276.644 6.6748C278.714 6.6748 280.485 7.40027 281.979 8.82987C283.451 10.2808 284.198 12.0305 284.198 14.1002C284.198 16.1699 283.451 17.9409 281.979 19.4345C280.485 20.9068 278.714 21.6536 276.644 21.6536Z" fill="white"/>
<path d="M334.632 32.5356H346.73V87.3297H334.632V80.4591C332.712 82.9769 330.258 84.94 327.314 86.3482C324.348 87.7565 320.998 88.4606 317.221 88.4606C310.5 88.4606 305.4 86.7536 301.922 83.361C298.444 79.9684 296.716 75.1462 296.716 68.937V32.5356H308.814V66.5899C308.814 70.7293 309.924 73.7806 312.143 75.7436C314.362 77.7066 317.242 78.6881 320.784 78.6881C324.625 78.6881 327.89 77.4506 330.535 74.9755C333.203 72.5003 334.568 68.5743 334.632 63.1546V32.5356Z" fill="white"/>
<path d="M382.675 88.418C379.559 88.418 376.679 88.0766 374.033 87.4152C371.366 86.7537 368.976 85.7509 366.885 84.428C364.773 83.1051 363.023 81.4621 361.615 79.4991C360.206 77.536 359.289 75.2956 358.841 72.7992L368.933 70.0253C369.744 73.2686 371.344 75.6797 373.756 77.2373C376.167 78.7949 379.026 79.5631 382.355 79.5631C385.235 79.5631 387.625 78.9443 389.503 77.6854C391.38 76.4265 392.34 74.6128 392.34 72.2444C392.34 70.7721 391.999 69.5559 391.295 68.6384C390.591 67.7209 389.631 66.9314 388.414 66.3126C387.198 65.6938 385.811 65.1604 384.254 64.755C382.696 64.3496 381.074 63.9869 379.367 63.7095C376.636 63.1974 374.097 62.5573 371.771 61.8318C369.445 61.085 367.397 60.1248 365.669 58.9513C363.94 57.7777 362.575 56.2841 361.615 54.5131C360.654 52.7421 360.164 50.5657 360.164 47.9626C360.164 42.7989 362.084 38.7449 365.925 35.8217C369.766 32.8984 374.844 31.4475 381.117 31.4475C383.699 31.4475 386.195 31.7249 388.606 32.2797C391.017 32.8344 393.173 33.7093 395.093 34.8828C397.013 36.0777 398.656 37.5286 400.022 39.257C401.387 40.9853 402.369 43.0763 402.966 45.5301L392.319 47.8559C391.508 45.2741 390.121 43.3537 388.158 42.0948C386.195 40.8359 383.741 40.2171 380.776 40.2171C377.959 40.2171 375.676 40.7932 373.905 41.9454C372.134 43.0977 371.238 44.698 371.238 46.7677C371.238 47.9626 371.579 48.9441 372.283 49.7549C372.987 50.5657 373.905 51.2485 375.057 51.8033C376.209 52.358 377.554 52.8275 379.111 53.2542C380.669 53.6596 382.291 54.0437 383.997 54.4278C386.963 55.0892 389.652 55.8147 392.084 56.5828C394.517 57.351 396.629 58.3538 398.4 59.57C400.171 60.7863 401.537 62.3225 402.497 64.1789C403.457 66.0352 403.948 68.361 403.948 71.1775C403.948 74.1434 403.372 76.6825 402.22 78.8376C401.067 80.9927 399.531 82.785 397.611 84.2146C395.69 85.6655 393.429 86.7324 390.847 87.4365C388.286 88.0766 385.555 88.418 382.675 88.418Z" fill="white"/>
<path d="M18.9027 71.7108C8.70352 71.7108 0.40332 80.0111 0.40332 90.2103C0.40332 100.409 8.70352 108.71 18.9027 108.71C29.102 108.71 37.4022 100.409 37.4022 90.2103C37.4022 80.0111 29.102 71.7108 18.9027 71.7108ZM25.9867 90.2103C25.9867 94.115 22.8075 97.2942 18.9027 97.2942C14.998 97.2942 11.8188 94.115 11.8188 90.2103C11.8188 86.3055 14.998 83.1263 18.9027 83.1263C22.8075 83.1263 25.9867 86.3055 25.9867 90.2103Z" fill="#09896D"/>
<path d="M251.23 36.5256C247.752 33.133 242.652 31.426 235.931 31.426C232.154 31.426 228.804 32.1088 225.903 33.4744C222.979 34.84 220.568 36.7817 218.627 39.2995V32.5356H206.528V87.3297C208.193 87.287 217.154 86.6042 218.627 77.3865V54.3636C219.075 49.7121 220.59 46.3194 223.171 44.2071C225.753 42.0947 228.826 41.0491 232.368 41.0491C235.91 41.0491 238.79 42.052 241.009 44.0364C243.228 46.0421 244.338 49.1146 244.338 53.2541V87.3084H256.436V50.9283C256.436 44.7191 254.687 39.9183 251.23 36.5256Z" fill="white"/>
<path d="M282.72 77.5361V32.5144H270.622V87.3085C272.18 87.2872 281.141 86.6684 282.72 77.5361Z" fill="white"/>
<path d="M43.405 46.8316L75.347 9.79007H59.9414L32.523 41.732H25.8658V0.551025C24.1802 0.636375 13.7036 1.66056 13.3408 14.1642V66.974C15.1332 66.5472 16.9895 66.2912 18.9099 66.2912C21.3423 66.2912 23.6681 66.6539 25.8871 67.3367V52.5926H32.8644L60.7096 87.3084H76.4565L43.405 46.8316Z" fill="white"/>
</g>
<defs>
<clipPath id="clip0_12_570">
<rect width="408" height="112" fill="white"/>
</clipPath>
</defs>
</svg>
