<svg width="720" height="520" viewBox="0 0 720 520" fill="none" xmlns="http://www.w3.org/2000/svg">
  <rect width="720" height="520" rx="36" fill="url(#bg)"/>
  <circle cx="572" cy="106" r="68" fill="white" fill-opacity=".1"/>
  <rect x="116" y="106" width="488" height="294" rx="34" fill="#0B1F58" fill-opacity=".45"/>
  <rect x="148" y="138" width="424" height="230" rx="24" fill="white" fill-opacity=".92"/>
  <rect x="214" y="404" width="292" height="20" rx="10" fill="white" fill-opacity=".42"/>
  <rect x="318" y="226" width="84" height="78" rx="20" fill="#09896D"/>
  <path d="M337 226V210C337 185.147 357.147 165 382 165C406.853 165 427 185.147 427 210V226" stroke="#0044CE" stroke-width="14" stroke-linecap="round"/>
  <circle cx="360" cy="196" r="10" fill="#0044CE"/>
  <circle cx="382" cy="196" r="10" fill="#0044CE"/>
  <circle cx="404" cy="196" r="10" fill="#0044CE"/>
  <path d="M116 96L148 64" stroke="white" stroke-width="12" stroke-linecap="round"/>
  <path d="M604 96L572 64" stroke="white" stroke-width="12" stroke-linecap="round"/>
  <defs>
    <linearGradient id="bg" x1="70" y1="42" x2="648" y2="470" gradientUnits="userSpaceOnUse">
      <stop stop-color="#0437A0"/>
      <stop offset="1" stop-color="#09896D"/>
    </linearGradient>
  </defs>
</svg>
