<svg width="720" height="520" viewBox="0 0 720 520" fill="none" xmlns="http://www.w3.org/2000/svg">
  <rect width="720" height="520" rx="36" fill="url(#bg)"/>
  <circle cx="122" cy="110" r="74" fill="white" fill-opacity=".1"/>
  <circle cx="604" cy="406" r="92" fill="white" fill-opacity=".08"/>
  <rect x="126" y="146" width="468" height="230" rx="32" fill="white" fill-opacity=".18"/>
  <rect x="166" y="188" width="202" height="146" rx="22" fill="white" fill-opacity=".92"/>
  <circle cx="235" cy="248" r="26" fill="#0044CE"/>
  <rect x="225" y="248" width="20" height="46" rx="10" fill="#0044CE"/>
  <path d="M462 244C462 212.52 487.52 187 519 187C550.48 187 576 212.52 576 244V274H462V244Z" fill="white" fill-opacity=".82"/>
  <rect x="446" y="266" width="146" height="92" rx="22" fill="#0044CE"/>
  <circle cx="519" cy="310" r="16" fill="white"/>
  <rect x="513" y="310" width="12" height="26" rx="6" fill="white"/>
  <path d="M392 188H426" stroke="white" stroke-width="14" stroke-linecap="round"/>
  <path d="M392 232H426" stroke="white" stroke-width="14" stroke-linecap="round"/>
  <path d="M392 276H426" stroke="white" stroke-width="14" stroke-linecap="round"/>
  <defs>
    <linearGradient id="bg" x1="62" y1="60" x2="664" y2="458" gradientUnits="userSpaceOnUse">
      <stop stop-color="#0044CE"/>
      <stop offset="1" stop-color="#19C29D"/>
    </linearGradient>
  </defs>
</svg>
